<svg xmlns="http://www.w3.org/2000/svg" width="136.113" height="127.662" viewBox="0 0 136.113 127.662"><defs><style>.a,.d{fill:none;}.b{fill:#515527;}.c{fill:#f92b8e;}.d{stroke:#fff;stroke-linecap:round;stroke-miterlimit:10;}</style></defs><path class="a" d="M29.1,381.1H142.533V276.12H29.1Zm5.158-52.487L46.3,316.568h0L80.443,282.43a7.611,7.611,0,0,1,10.752,0l34.139,34.138h0l12.041,12.041a2.534,2.534,0,1,1-3.584,3.584l-7.715-7.715v46.956a5.582,5.582,0,0,1-5.576,5.576H51.138a5.582,5.582,0,0,1-5.576-5.576V324.478l-7.715,7.715a2.534,2.534,0,0,1-3.584-3.584Z" transform="translate(-17.763 -264.777)"/><path class="b" d="M46.3,316.568h0Z" transform="translate(-17.763 -264.777)"/><g transform="translate(15.757 15.43)"><path class="b" d="M46.3,316.568,34.263,328.609a2.534,2.534,0,0,0,3.584,3.584l7.715-7.715V318.36A2.529,2.529,0,0,1,46.3,316.568Z" transform="translate(-33.521 -280.207)"/><path class="b" d="M137.375,328.609l-12.041-12.041h0L91.195,282.43a7.611,7.611,0,0,0-10.752,0L46.305,316.568a2.534,2.534,0,0,1,4.326,1.792v1.049l33.4-33.395a2.536,2.536,0,0,1,3.584,0l33.4,33.395v52.025a.507.507,0,0,1-.507.506H51.138a.507.507,0,0,1-.507-.506V319.409l-5.069,5.069v46.956a5.582,5.582,0,0,0,5.576,5.576H120.5a5.582,5.582,0,0,0,5.576-5.576V324.478l7.715,7.715a2.534,2.534,0,1,0,3.584-3.584Z" transform="translate(-33.521 -280.207)"/></g><path class="b" d="M45.562,324.478l5.069-5.069V318.36a2.534,2.534,0,0,0-4.326-1.792h0a2.529,2.529,0,0,0-.742,1.792Z" transform="translate(-17.763 -264.777)"/><path class="a" d="M17.763,264.777V392.439H153.876V264.777ZM142.533,381.1H29.1V276.12H142.533Z" transform="translate(-17.763 -264.777)"/><path class="c" d="M91.437,332.291l-3.829,3.828a2.535,2.535,0,0,1-3.584,0l-3.829-3.829a3.448,3.448,0,0,0-4.877,4.876l10.5,10.5,10.5-10.5a3.448,3.448,0,1,0-4.877-4.876Z" transform="translate(-17.763 -264.777)"/><line class="d" x1="2.349" y2="2.349" transform="translate(73.668 70.71)"/><path class="b" d="M87.853,328.707l-2.036,2.036-2.038-2.036a8.517,8.517,0,0,0-12.045,12.044l12.29,12.291a2.535,2.535,0,0,0,3.584,0L99.9,340.751a8.517,8.517,0,0,0-12.045-12.044Zm8.461,8.46-10.5,10.5-10.5-10.5a3.448,3.448,0,0,1,4.877-4.876l3.829,3.829a2.535,2.535,0,0,0,3.584,0l3.829-3.828a3.448,3.448,0,1,1,4.877,4.876Z" transform="translate(-17.763 -264.777)"/></svg>