<svg xmlns="http://www.w3.org/2000/svg" width="136.114" height="127.662" viewBox="0 0 136.114 127.662"><defs><style>.a{fill:none;}.b{fill:#515527;}.c{fill:#2f7af4;}</style></defs><path class="a" d="M250.411,321.285a19.041,19.041,0,1,0-19.041-19.041A19.062,19.062,0,0,0,250.411,321.285Z" transform="translate(-182.354 -264.514)"/><path class="b" d="M250.411,326.588a24.344,24.344,0,1,0-24.344-24.344A24.371,24.371,0,0,0,250.411,326.588Zm0-43.385a19.041,19.041,0,1,1-19.041,19.041A19.062,19.062,0,0,1,250.411,283.2Z" transform="translate(-182.354 -264.514)"/><path class="a" d="M182.354,264.514V392.176H318.468V264.514ZM307.125,380.833H193.7V275.857H307.125Z" transform="translate(-182.354 -264.514)"/><path class="c" d="M214.713,373.487h63.834a.53.53,0,0,0,.53-.53v-5.675a32.607,32.607,0,0,0-31.813-32.441c-.2,0-.409-.006-.612-.006a31.844,31.844,0,0,0-22.413,9.282,33.644,33.644,0,0,0-10.056,23.858v4.982A.53.53,0,0,0,214.713,373.487Z" transform="translate(-182.354 -264.514)"/><path class="b" d="M261.652,331.282a37.192,37.192,0,0,0-10.506-1.743,36.764,36.764,0,0,0-11.839,1.743,37.581,37.581,0,0,0-15,9.051,38.974,38.974,0,0,0-11.646,27.642v4.982a5.857,5.857,0,0,0,5.833,5.833h63.834a5.859,5.859,0,0,0,5.833-5.833v-5.675A37.98,37.98,0,0,0,261.652,331.282Zm21.206,41.675a.53.53,0,0,1-.53.53H218.494a.53.53,0,0,1-.53-.53v-4.982a33.644,33.644,0,0,1,10.056-23.858,31.844,31.844,0,0,1,22.413-9.282c.2,0,.409,0,.612.006a32.607,32.607,0,0,1,31.813,32.441Z" transform="translate(-182.354 -264.514)"/></svg>