<svg xmlns="http://www.w3.org/2000/svg" width="136.113" height="127.662" viewBox="0 0 136.113 127.662"><defs><style>.a{fill:none;}.b{fill:#515527;}.c{fill:#30f235;}</style></defs><path class="a" d="M456.734,365.02a2.882,2.882,0,1,0,2.882,2.882A2.885,2.885,0,0,0,456.734,365.02Z" transform="translate(-358.093 -264.408)"/><path class="a" d="M406.7,365.02a2.882,2.882,0,1,0,2.88,2.882A2.885,2.885,0,0,0,406.7,365.02Z" transform="translate(-358.093 -264.408)"/><path class="b" d="M391.2,285.441a2.653,2.653,0,0,1,.242.493A2.593,2.593,0,0,0,391.2,285.441Z" transform="translate(-358.093 -264.408)"/><path class="b" d="M390.542,284.694a2.7,2.7,0,0,1,.387.338A2.647,2.647,0,0,0,390.542,284.694Z" transform="translate(-358.093 -264.408)"/><path class="b" d="M389.653,284.248a2.645,2.645,0,0,1,.47.164A2.669,2.669,0,0,0,389.653,284.248Z" transform="translate(-358.093 -264.408)"/><path class="b" d="M388.243,284.192a2.635,2.635,0,0,1,.873-.052c-.064-.005-.119-.037-.185-.037h-13.28a2.689,2.689,0,1,0,0,5.378h11.21l-.53-2A2.69,2.69,0,0,1,388.243,284.192Z" transform="translate(-358.093 -264.408)"/><path class="b" d="M407.024,342.585a.7.7,0,0,1-.679-.523L391.531,286.1c-.017-.064-.062-.109-.084-.17a2.618,2.618,0,0,1,.174.858,2.689,2.689,0,0,1-2.69,2.689h-2.07l14.283,53.957a5.983,5.983,0,0,0,.4.889,7.97,7.97,0,0,1,4.941-1.742Z" transform="translate(-358.093 -264.408)"/><path class="b" d="M433.975,305.344a2.69,2.69,0,0,1,.583-2.931l.788-.788h-31.92a2.689,2.689,0,0,0,0,5.379H436.46A2.689,2.689,0,0,1,433.975,305.344Z" transform="translate(-358.093 -264.408)"/><path class="b" d="M390.123,284.412a2.628,2.628,0,0,1,.419.282A2.583,2.583,0,0,0,390.123,284.412Z" transform="translate(-358.093 -264.408)"/><path class="b" d="M390.929,285.032a2.712,2.712,0,0,1,.276.409A2.76,2.76,0,0,0,390.929,285.032Z" transform="translate(-358.093 -264.408)"/><path class="b" d="M464.851,307h5a.7.7,0,0,1,.68.884l-9.045,34.174a.7.7,0,0,1-.68.523h-4.069a2.689,2.689,0,1,1,0,5.379H460.8a6.088,6.088,0,0,0,5.88-4.526l9.046-34.173a6.076,6.076,0,0,0-4.539-7.487l-4.438,4.438A2.685,2.685,0,0,1,464.851,307Z" transform="translate(-358.093 -264.408)"/><path class="b" d="M389.116,284.14a2.65,2.65,0,0,1,.537.108A2.558,2.558,0,0,0,389.116,284.14Z" transform="translate(-358.093 -264.408)"/><path class="b" d="M391.621,286.792a2.618,2.618,0,0,0-.174-.858,2.653,2.653,0,0,0-.242-.493,1.948,1.948,0,0,0-.663-.747,2.822,2.822,0,0,0-2.3-.5,2.69,2.69,0,0,0-1.912,3.288l.53,2h2.07A2.689,2.689,0,0,0,391.621,286.792Z" transform="translate(-358.093 -264.408)"/><path class="b" d="M414.872,320.658H435.49a2.689,2.689,0,1,0,0-5.379H414.872a2.689,2.689,0,0,0,0,5.379Z" transform="translate(-358.093 -264.408)"/><path class="b" d="M414.872,334.31h12.952a2.689,2.689,0,0,0,0-5.379H414.872a2.689,2.689,0,0,0,0,5.379Z" transform="translate(-358.093 -264.408)"/><path class="b" d="M401.546,344.327a8.021,8.021,0,0,0,4.941,14.364h50.247a2.689,2.689,0,1,0,0-5.379H406.487a2.674,2.674,0,0,1,0-5.348h.537A6.03,6.03,0,0,1,401.546,344.327Z" transform="translate(-358.093 -264.408)"/><path class="b" d="M459.424,345.274a2.69,2.69,0,0,0-2.69-2.689H406.487a7.97,7.97,0,0,0-4.941,1.742,6.03,6.03,0,0,0,5.478,3.637h49.71A2.69,2.69,0,0,0,459.424,345.274Z" transform="translate(-358.093 -264.408)"/><path class="b" d="M406.7,359.641a8.26,8.26,0,1,0,8.259,8.261A8.27,8.27,0,0,0,406.7,359.641Zm0,11.142a2.882,2.882,0,1,1,2.88-2.881A2.885,2.885,0,0,1,406.7,370.783Z" transform="translate(-358.093 -264.408)"/><path class="b" d="M456.734,359.641a8.26,8.26,0,1,0,8.261,8.261A8.27,8.27,0,0,0,456.734,359.641Zm0,11.142a2.882,2.882,0,1,1,2.882-2.881A2.885,2.885,0,0,1,456.734,370.783Z" transform="translate(-358.093 -264.408)"/><path class="b" d="M471.19,301.778l.153-.153h-1.495A6.154,6.154,0,0,1,471.19,301.778Z" transform="translate(-358.093 -264.408)"/><path class="b" d="M463.737,301.625H435.346l-.788.788a2.689,2.689,0,0,0,1.9,4.591h28.391a2.685,2.685,0,0,0,1.9-.788l4.438-4.438a6.154,6.154,0,0,0-1.342-.153Z" transform="translate(-358.093 -264.408)"/><path class="a" d="M358.093,264.408V392.07H494.206V264.408Zm124.77,116.319H369.435V275.751H482.863Z" transform="translate(-358.093 -264.408)"/><path class="c" d="M464.381,297.2l-10.392-10.391-14.817,14.816h20.785Z" transform="translate(-358.093 -264.408)"/><path class="b" d="M474.655,297.2a2.689,2.689,0,0,0-.788-1.9l-14.2-14.2a2.689,2.689,0,0,0-3.8,0l-20.522,20.522h7.606l14.818-14.816L468.162,297.2l-4.425,4.425h7.606l2.524-2.523A2.693,2.693,0,0,0,474.655,297.2Z" transform="translate(-358.093 -264.408)"/></svg>